<svg xmlns="http://www.w3.org/2000/svg" width="24" height="24" viewBox="0 0 24 24"><g><g><path fill="#fff" d="M11.766 17.438l6.562-9.516c.156-.219.188-.445.094-.68a.775.775 0 0 0-.516-.469c-.25-.078-.484-.023-.703.165l-9.89 8.671L2.25 13.5l19.5-11.25-2.766 18.14zM9 18.703l1.734.703L9 21.75zm-7.875-7.172c-.531.313-.875.742-1.031 1.29a2.316 2.316 0 0 0 .117 1.617c.234.53.633.906 1.195 1.125l5.344 2.25v3.937c0 .688.25 1.242.75 1.664.5.422 1.07.61 1.711.563.64-.047 1.18-.336 1.617-.868l2.016-2.812 5.25 2.203c.281.094.578.14.89.14.375 0 .735-.093 1.079-.28.625-.344 1-.876 1.125-1.594l2.765-18.188c.094-.594-.023-1.125-.351-1.594A2.242 2.242 0 0 0 22.266.07a2.238 2.238 0 0 0-1.641.211z"/></g></g></svg>